<?xml version="1.0" encoding="UTF-8" standalone="no"?>
<!-- Created with Inkscape (http://www.inkscape.org/) -->

<svg
   xmlns:dc="http://purl.org/dc/elements/1.1/"
   xmlns:cc="http://creativecommons.org/ns#"
   xmlns:rdf="http://www.w3.org/1999/02/22-rdf-syntax-ns#"
   xmlns:svg="http://www.w3.org/2000/svg"
   xmlns="http://www.w3.org/2000/svg"
   xmlns:sodipodi="http://sodipodi.sourceforge.net/DTD/sodipodi-0.dtd"
   xmlns:inkscape="http://www.inkscape.org/namespaces/inkscape"
   width="11"
   height="25"
   id="svg9714"
   version="1.1"
   inkscape:version="0.48.4 r9939"
   sodipodi:docname="Neues Dokument 70">
  <defs
     id="defs9716" />
  <sodipodi:namedview
     id="base"
     pagecolor="#ffffff"
     bordercolor="#666666"
     borderopacity="1.0"
     inkscape:pageopacity="0.0"
     inkscape:pageshadow="2"
     inkscape:zoom="7.9195959"
     inkscape:cx="69.527957"
     inkscape:cy="-9.191245"
     inkscape:document-units="px"
     inkscape:current-layer="layer1"
     showgrid="false"
     inkscape:window-width="1920"
     inkscape:window-height="1039"
     inkscape:window-x="-2"
     inkscape:window-y="20"
     inkscape:window-maximized="1" />
  <metadata
     id="metadata9719">
    <rdf:RDF>
      <cc:Work
         rdf:about="">
        <dc:format>image/svg+xml</dc:format>
        <dc:type
           rdf:resource="http://purl.org/dc/dcmitype/StillImage" />
        <dc:title></dc:title>
      </cc:Work>
    </rdf:RDF>
  </metadata>
  <g
     inkscape:label="Ebene 1"
     inkscape:groupmode="layer"
     id="layer1"
     transform="translate(0,-1027.3622)">
    <path
       style="fill:#e6e6e6;fill-opacity:1;stroke:#cccccc;stroke-width:3.137326;stroke-miterlimit:4;stroke-dasharray:none;stroke-dashoffset:0"
       d="m 1.9824891,1029.0573 288.7858509,0 c 0.0798,0 0.15177,0.06 0.20382,0.1574 0.052,0.097 1.6e-4,0.264 0.0842,0.3809 l 7.47117,10.3931 -7.47117,10.393 c -0.084,0.1169 -0.0321,0.2837 -0.0842,0.381 -0.0521,0.097 -0.12404,0.1573 -0.20382,0.1573 l -288.7858509,0 c -0.0798,0 -0.15177,-0.06 -0.20381,-0.1573 -0.0521,-0.097 -0.1682001,-0.2641 -0.0842,-0.381 l 7.47116,-10.393 -7.47116,-10.3931 c -0.084,-0.1168 0.0321,-0.2836 0.0842,-0.3809 0.0521,-0.097 0.12405,-0.1574 0.20381,-0.1574 z"
       id="rect2985-2-2-2-9"
       inkscape:connector-curvature="0"
       sodipodi:nodetypes="sssscsssssscsss"
       inkscape:export-xdpi="90"
       inkscape:export-ydpi="90" />
  </g>
</svg>
